PathFileType	4	(X/Y/Z)	s07c0202.trc
DataRate	CameraRate	NumFrames	NumMarkers	Units	OrigDataRate	OrigDataStartFrame	OrigNumFrames
200	200	4	48	mm	200	1250	2000
Frame#	Time	racr			lacr			c7			jug			rlel			rdr			llel			ldr			s2			lic			ric			lasi			rasi			rpsi			lpsi			rgt			lgt			rth1			rth2			rth3			rth4			rlfc			rmfc			rsh1			rsh2			rsh3			rsh4			rlmal			rcal			rtoe			rmt5			lth1			lth2			lth4			lth3			llfc			lmfc			lsh1			lsh2			lsh3			lsh4			llmal			lcal			ltoe			lmt5			SBIKE			LBIKE			RBIKE			
		X1	Y1	Z1	X2	Y2	Z2	X3	Y3	Z3	X4	Y4	Z4	X5	Y5	Z5	X6	Y6	Z6	X7	Y7	Z7	X8	Y8	Z8	X9	Y9	Z9	X10	Y10	Z10	X11	Y11	Z11	X12	Y12	Z12	X13	Y13	Z13	X14	Y14	Z14	X15	Y15	Z15	X16	Y16	Z16	X17	Y17	Z17	X18	Y18	Z18	X19	Y19	Z19	X20	Y20	Z20	X21	Y21	Z21	X22	Y22	Z22	X23	Y23	Z23	X24	Y24	Z24	X25	Y25	Z25	X26	Y26	Z26	X27	Y27	Z27	X28	Y28	Z28	X29	Y29	Z29	X30	Y30	Z30	X31	Y31	Z31	X32	Y32	Z32	X33	Y33	Z33	X34	Y34	Z34	X35	Y35	Z35	X36	Y36	Z36	X37	Y37	Z37	X38	Y38	Z38	X39	Y39	Z39	X40	Y40	Z40	X41	Y41	Z41	X42	Y42	Z42	X43	Y43	Z43	X44	Y44	Z44	X45	Y45	Z45	X46	Y46	Z46	X47	Y47	Z47	X48	Y48	Z48	
1250	6.2500	475.991572	1437.831012	-79.626023	493.116686	1415.803285	-360.884070	448.289205	1479.379676	-225.662523	401.650492	1330.581029	-223.546226	493.426433	1125.354725	85.671317	687.900071	942.883810	-48.774971	505.079009	1138.592322	-572.389974	687.821639	932.780976	-463.125597	-112.295319	1201.274833	-256.780176	51.283090	1263.544295	-387.717204	46.851482	1258.201724	-98.974977	82.318724	1190.833773	-360.325887	68.368697	1200.418218	-112.484890	-89.850305	1243.116260	-203.544836	-76.157303	1253.321191	-310.506683	-5.479915	1113.465562	-60.495431	11.905723	1115.383674	-428.763838	100.541711	979.588565	-61.243963	159.775192	915.808402	-75.462871	182.076962	833.415004	-79.399571	188.584779	933.810328	-91.543573	241.521111	713.905756	-112.150570	219.400145	693.573016	-210.854990	214.917157	574.550690	-77.288748	221.430263	486.799147	-95.207470	189.923210	406.436604	-84.359103	231.431579	487.556360	-134.526277	163.238858	266.092185	-78.280742	98.577629	216.340393	-104.175007	389.500192	240.750336	-129.932824	321.425576	194.754671	-57.691161	109.454074	1048.103963	-430.964458	196.667237	1033.815042	-432.023829	211.696463	1065.936054	-422.846303	265.942043	977.670057	-431.270177	407.831509	871.788263	-400.445581	398.395926	855.206244	-298.919546	297.068231	769.983585	-413.119265	248.773438	701.325171	-393.994226	168.484215	661.039160	-398.007632	242.297912	689.904038	-336.262300	63.008057	586.539790	-396.316149	-8.989278	610.031070	-360.219033	164.719812	379.301873	-363.504515	93.913334	424.671677	-425.161324	-263.227757	968.463982	-238.536722	-83.419144	79.263989	-437.792089	-83.555900	79.161677	-40.133874	
1251	6.2550	477.545567	1437.527476	-81.096863	490.513464	1418.646895	-363.606177	449.002360	1480.852614	-226.476082	399.991236	1332.816351	-225.940147	494.352357	1125.540073	85.675809	688.217101	942.916758	-49.007772	504.056481	1139.216348	-571.328395	687.940510	933.174211	-462.931855	-111.441704	1202.236015	-253.437680	49.982093	1266.928869	-385.625913	49.573472	1257.764035	-96.956597	82.075213	1193.904469	-358.860254	71.126672	1199.496220	-111.789645	-87.298559	1243.097310	-200.876198	-76.045782	1255.015153	-306.811236	-3.674299	1112.302130	-59.371108	12.212855	1119.337043	-428.032014	98.708049	976.049389	-59.998760	156.092413	910.457728	-74.117585	175.987856	827.369608	-78.092918	185.340504	927.733170	-90.080683	233.666320	706.973731	-111.383877	209.725051	687.769358	-209.306641	206.522935	567.864792	-76.500443	213.254284	480.189340	-94.671191	181.364888	399.537094	-84.652256	223.504521	481.242742	-133.915249	155.407400	259.592360	-78.339565	90.943854	210.182039	-104.229740	381.989094	232.714331	-129.730886	313.421291	187.224941	-57.545332	111.223272	1053.976577	-430.653906	198.672513	1041.612805	-431.654515	213.029982	1073.825042	-421.972909	269.214293	986.847877	-431.377441	413.339112	883.028748	-400.823092	404.444407	865.935992	-299.394158	303.860721	780.062100	-413.348588	256.031426	710.916554	-394.627283	175.960629	669.725328	-398.177363	247.646523	698.081838	-334.322240	71.540432	594.180816	-396.806740	-0.714541	617.875064	-360.603266	172.804797	386.567236	-363.125136	102.031280	432.250527	-425.226054	-263.121449	968.481352	-238.380634	-83.433761	79.298583	-437.817699	-83.570863	79.168645	-40.131349	
1252	6.2600	478.986613	1437.182506	-82.682558	487.735064	1421.411697	-366.335617	449.480758	1482.291662	-227.541201	398.191546	1335.041763	-228.348510	495.208506	1125.719525	85.701035	688.579132	942.982630	-49.036767	502.962283	1139.878299	-570.197512	688.215990	933.743131	-462.955075	-110.533161	1203.225217	-250.320312	48.387253	1270.984661	-385.881543	52.516776	1257.121108	-95.051833	81.862790	1196.709596	-357.608675	73.610208	1198.549882	-110.513721	-86.014212	1243.621109	-197.265837	-75.843748	1256.367825	-303.199325	-1.929461	1111.095550	-58.252492	12.515605	1123.112744	-427.269063	96.845649	972.479446	-58.729806	152.504378	905.471144	-72.557261	170.301729	821.712868	-76.677992	182.180834	921.817870	-88.636866	225.550144	700.489639	-110.160076	201.236598	681.966107	-208.059064	197.978203	561.729920	-75.669290	204.721090	474.081483	-94.150478	173.397453	393.542001	-83.963686	215.361625	475.063766	-133.203683	147.204324	253.458478	-78.556216	82.841633	204.454468	-104.342695	373.925020	224.946709	-129.971702	304.629774	180.082126	-57.652917	112.943968	1059.872574	-430.239114	200.729886	1049.683917	-431.415975	214.201021	1081.763292	-421.031858	272.315893	996.390953	-431.464358	418.366492	894.712963	-401.913805	410.438697	876.827491	-299.739872	310.716526	789.982201	-413.288002	266.540115	715.987618	-384.902863	184.138286	678.392473	-398.936718	257.848250	709.245131	-337.820894	80.785904	601.534816	-397.752586	8.057965	625.351843	-360.880563	181.801765	393.392468	-362.782907	110.631535	439.257541	-425.247918	-263.203191	968.492944	-237.911428	-83.449403	79.299430	-437.800189	-83.547239	79.136041	-40.125688	
1253	6.2650	480.354952	1436.733251	-84.442883	484.806760	1424.193651	-368.985576	449.674103	1483.601243	-228.991831	396.518285	1337.036185	-230.943094	496.013164	1125.981977	85.749914	689.001767	943.059384	-48.789503	501.756723	1140.546125	-569.187150	688.727656	934.473309	-463.136640	-108.383559	1203.187840	-247.419374	47.923025	1273.259708	-383.073514	55.299368	1256.026575	-93.178287	81.765353	1199.193277	-356.214159	76.009436	1197.398331	-109.007187	-84.647310	1243.930919	-193.679831	-75.579911	1257.624295	-299.759163	-0.137573	1109.756793	-57.192466	12.806540	1126.717014	-426.449461	95.089887	969.357200	-57.289640	149.066633	900.758087	-70.866092	164.732061	816.521041	-74.847543	179.058102	916.326282	-87.180137	217.618338	694.417123	-108.940758	193.746099	676.021729	-207.026302	189.570552	555.782730	-74.978616	196.299758	468.351448	-93.588649	164.252816	387.725937	-83.966053	207.227102	469.385181	-132.578067	138.377208	247.923434	-78.845378	74.322799	199.221452	-104.498137	365.424625	217.714449	-129.912769	295.848012	173.506530	-57.361994	114.613133	1065.845206	-429.851206	202.589044	1057.610476	-431.082156	215.341810	1089.878863	-420.412675	275.458064	1005.947758	-431.368579	423.912286	906.685466	-402.990457	417.092139	888.125253	-301.548169	317.932084	799.958046	-413.621982	271.895997	729.206453	-396.153877	192.501120	686.977382	-399.539659	279.243703	727.663851	-354.616861	90.412961	608.349798	-398.761006	17.353305	631.642777	-361.364491	190.167589	399.240503	-362.077216	119.495960	445.694034	-425.095452	-263.184166	968.596672	-237.792641	-83.461007	79.355635	-437.782693	-83.558215	79.143552	-40.132111	
